solid Visualization Toolkit generated SLA File
 facet normal -0.49235791005534152 -0.87039283568164583 -0
  outer loop
   vertex -0.002186780096963048 0.0018792300252243876 0.014999999664723873
   vertex -0.0034841899760067463 0.0026131400372833014 0.014999999664723873
   vertex -0.0034841899760067463 0.0026131400372833014 -0.014999999664723873
  endloop
 endfacet
 facet normal -0.49235791005534152 -0.87039283568164583 0
  outer loop
   vertex -0.002186780096963048 0.0018792300252243876 0.014999999664723873
   vertex -0.0034841899760067463 0.0026131400372833014 -0.014999999664723873
   vertex -0.002186780096963048 0.0018792300252243876 -0.014999999664723873
  endloop
 endfacet
 facet normal -0.25457025380684162 -0.96705428279736205 0
  outer loop
   vertex -0.00074529799167066813 0.001499769976362586 0.014999999664723873
   vertex -0.002186780096963048 0.0018792300252243876 0.014999999664723873
   vertex -0.00074529799167066813 0.001499769976362586 -0.014999999664723873
  endloop
 endfacet
 facet normal -0.25457025380684162 -0.96705428279736205 0
  outer loop
   vertex -0.002186780096963048 0.0018792300252243876 0.014999999664723873
   vertex -0.002186780096963048 0.0018792300252243876 -0.014999999664723873
   vertex -0.00074529799167066813 0.001499769976362586 -0.014999999664723873
  endloop
 endfacet
 facet normal 0 -1 0
  outer loop
   vertex 0.00074529799167066813 0.001499769976362586 0.014999999664723873
   vertex -0.00074529799167066813 0.001499769976362586 0.014999999664723873
   vertex 0.00074529799167066813 0.001499769976362586 -0.014999999664723873
  endloop
 endfacet
 facet normal 0 -1 0
  outer loop
   vertex -0.00074529799167066813 0.001499769976362586 0.014999999664723873
   vertex -0.00074529799167066813 0.001499769976362586 -0.014999999664723873
   vertex 0.00074529799167066813 0.001499769976362586 -0.014999999664723873
  endloop
 endfacet
 facet normal 0.25457025380684162 -0.96705428279736205 0
  outer loop
   vertex 0.002186780096963048 0.0018792300252243876 0.014999999664723873
   vertex 0.00074529799167066813 0.001499769976362586 0.014999999664723873
   vertex 0.002186780096963048 0.0018792300252243876 -0.014999999664723873
  endloop
 endfacet
 facet normal 0.25457025380684162 -0.96705428279736205 0
  outer loop
   vertex 0.00074529799167066813 0.001499769976362586 0.014999999664723873
   vertex 0.00074529799167066813 0.001499769976362586 -0.014999999664723873
   vertex 0.002186780096963048 0.0018792300252243876 -0.014999999664723873
  endloop
 endfacet
 facet normal 0.49235791005534152 -0.87039283568164583 0
  outer loop
   vertex 0.0034841899760067463 0.0026131400372833014 0.014999999664723873
   vertex 0.002186780096963048 0.0018792300252243876 0.014999999664723873
   vertex 0.0034841899760067463 0.0026131400372833014 -0.014999999664723873
  endloop
 endfacet
 facet normal 0.49235791005534152 -0.87039283568164583 0
  outer loop
   vertex 0.002186780096963048 0.0018792300252243876 0.014999999664723873
   vertex 0.002186780096963048 0.0018792300252243876 -0.014999999664723873
   vertex 0.0034841899760067463 0.0026131400372833014 -0.014999999664723873
  endloop
 endfacet
 facet normal 0.60000003427823478 -0.79999997429132275 0
  outer loop
   vertex 0.0034841899760067463 0.0026131400372833014 0.014999999664723873
   vertex 0.0034841899760067463 0.0026131400372833014 -0.014999999664723873
   vertex 0.039999999105930328 0.029999999329447746 -0.014999999664723873
  endloop
 endfacet
 facet normal 0.60000003427823478 -0.79999997429132275 0
  outer loop
   vertex 0.039999999105930328 0.029999999329447746 0.014999999664723873
   vertex 0.0034841899760067463 0.0026131400372833014 0.014999999664723873
   vertex 0.039999999105930328 0.029999999329447746 -0.014999999664723873
  endloop
 endfacet
 facet normal -0.60000003427823478 -0.79999997429132275 0
  outer loop
   vertex -0.039999999105930328 0.029999999329447746 -0.014999999664723873
   vertex -0.0034841899760067463 0.0026131400372833014 -0.014999999664723873
   vertex -0.0034841899760067463 0.0026131400372833014 0.014999999664723873
  endloop
 endfacet
 facet normal -0.60000003427823478 -0.79999997429132275 0
  outer loop
   vertex -0.039999999105930328 0.029999999329447746 -0.014999999664723873
   vertex -0.0034841899760067463 0.0026131400372833014 0.014999999664723873
   vertex -0.039999999105930328 0.029999999329447746 0.014999999664723873
  endloop
 endfacet
 facet normal 1 0 -0
  outer loop
   vertex 0.039999999105930328 0.029999999329447746 -0.014999999664723873
   vertex 0.039999999105930328 0.039999999105930328 -0.014999999664723873
   vertex 0.039999999105930328 0.039999999105930328 0.014999999664723873
  endloop
 endfacet
 facet normal 1 0 0
  outer loop
   vertex 0.039999999105930328 0.029999999329447746 -0.014999999664723873
   vertex 0.039999999105930328 0.039999999105930328 0.014999999664723873
   vertex 0.039999999105930328 0.029999999329447746 0.014999999664723873
  endloop
 endfacet
 facet normal -0.59999952006165125 0.80000035995353647 0
  outer loop
   vertex 0.039999999105930328 0.039999999105930328 -0.014999999664723873
   vertex 0.0021834198851138353 0.011637600138783455 -0.014999999664723873
   vertex 0.0021834198851138353 0.011637600138783455 0.014999999664723873
  endloop
 endfacet
 facet normal -0.59999952006165125 0.80000035995353647 0
  outer loop
   vertex 0.039999999105930328 0.039999999105930328 -0.014999999664723873
   vertex 0.0021834198851138353 0.011637600138783455 0.014999999664723873
   vertex 0.039999999105930328 0.039999999105930328 0.014999999664723873
  endloop
 endfacet
 facet normal 0.49242678056149114 0.8703538738845511 -0
  outer loop
   vertex -0.0013703800505027175 0.011177600361406803 -0.014999999664723873
   vertex -0.0021834198851138353 0.011637600138783455 -0.014999999664723873
   vertex -0.0021834198851138353 0.011637600138783455 0.014999999664723873
  endloop
 endfacet
 facet normal 0.49242678056149114 0.8703538738845511 0
  outer loop
   vertex -0.0013703800505027175 0.011177600361406803 -0.014999999664723873
   vertex -0.0021834198851138353 0.011637600138783455 0.014999999664723873
   vertex -0.0013703800505027175 0.011177600361406803 0.014999999664723873
  endloop
 endfacet
 facet normal 0.25447590277798415 0.96707911512209277 0
  outer loop
   vertex -0.00046705201384611428 0.010939899832010269 -0.014999999664723873
   vertex -0.0013703800505027175 0.011177600361406803 0.014999999664723873
   vertex -0.00046705201384611428 0.010939899832010269 0.014999999664723873
  endloop
 endfacet
 facet normal -0 1 0
  outer loop
   vertex -0.00046705201384611428 0.010939899832010269 -0.014999999664723873
   vertex -0.00046705201384611428 0.010939899832010269 0.014999999664723873
   vertex 0.00046705201384611428 0.010939899832010269 0.014999999664723873
  endloop
 endfacet
 facet normal 0.25447590277798415 0.96707911512209277 -0
  outer loop
   vertex -0.00046705201384611428 0.010939899832010269 -0.014999999664723873
   vertex -0.0013703800505027175 0.011177600361406803 -0.014999999664723873
   vertex -0.0013703800505027175 0.011177600361406803 0.014999999664723873
  endloop
 endfacet
 facet normal 0 1 0
  outer loop
   vertex 0.00046705201384611428 0.010939899832010269 -0.014999999664723873
   vertex -0.00046705201384611428 0.010939899832010269 -0.014999999664723873
   vertex 0.00046705201384611428 0.010939899832010269 0.014999999664723873
  endloop
 endfacet
 facet normal -0.25447590277798415 0.96707911512209277 0
  outer loop
   vertex 0.0013703800505027175 0.011177600361406803 -0.014999999664723873
   vertex 0.00046705201384611428 0.010939899832010269 0.014999999664723873
   vertex 0.0013703800505027175 0.011177600361406803 0.014999999664723873
  endloop
 endfacet
 facet normal -0.49242678056149114 0.8703538738845511 0
  outer loop
   vertex 0.0013703800505027175 0.011177600361406803 -0.014999999664723873
   vertex 0.0013703800505027175 0.011177600361406803 0.014999999664723873
   vertex 0.0021834198851138353 0.011637600138783455 0.014999999664723873
  endloop
 endfacet
 facet normal -0.25447590277798415 0.96707911512209277 0
  outer loop
   vertex 0.0013703800505027175 0.011177600361406803 -0.014999999664723873
   vertex 0.00046705201384611428 0.010939899832010269 -0.014999999664723873
   vertex 0.00046705201384611428 0.010939899832010269 0.014999999664723873
  endloop
 endfacet
 facet normal -0.49242678056149114 0.8703538738845511 0
  outer loop
   vertex 0.0021834198851138353 0.011637600138783455 -0.014999999664723873
   vertex 0.0013703800505027175 0.011177600361406803 -0.014999999664723873
   vertex 0.0021834198851138353 0.011637600138783455 0.014999999664723873
  endloop
 endfacet
 facet normal 0.59999952006165125 0.80000035995353647 -0
  outer loop
   vertex -0.0021834198851138353 0.011637600138783455 -0.014999999664723873
   vertex -0.039999999105930328 0.039999999105930328 -0.014999999664723873
   vertex -0.039999999105930328 0.039999999105930328 0.014999999664723873
  endloop
 endfacet
 facet normal 0.59999952006165125 0.80000035995353647 0
  outer loop
   vertex -0.0021834198851138353 0.011637600138783455 -0.014999999664723873
   vertex -0.039999999105930328 0.039999999105930328 0.014999999664723873
   vertex -0.0021834198851138353 0.011637600138783455 0.014999999664723873
  endloop
 endfacet
 facet normal -1 0 0
  outer loop
   vertex -0.039999999105930328 0.039999999105930328 -0.014999999664723873
   vertex -0.039999999105930328 0.029999999329447746 -0.014999999664723873
   vertex -0.039999999105930328 0.029999999329447746 0.014999999664723873
  endloop
 endfacet
 facet normal -1 0 0
  outer loop
   vertex -0.039999999105930328 0.039999999105930328 -0.014999999664723873
   vertex -0.039999999105930328 0.029999999329447746 0.014999999664723873
   vertex -0.039999999105930328 0.039999999105930328 0.014999999664723873
  endloop
 endfacet
 facet normal 0 0 -1
  outer loop
   vertex 0.0021834198851138353 0.011637600138783455 -0.014999999664723873
   vertex 0.039999999105930328 0.029999999329447746 -0.014999999664723873
   vertex 0.0034841899760067463 0.0026131400372833014 -0.014999999664723873
  endloop
 endfacet
 facet normal 0 -0 -1
  outer loop
   vertex 0.0021834198851138353 0.011637600138783455 -0.014999999664723873
   vertex 0.039999999105930328 0.039999999105930328 -0.014999999664723873
   vertex 0.039999999105930328 0.029999999329447746 -0.014999999664723873
  endloop
 endfacet
 facet normal 0 -0 -1
  outer loop
   vertex 0.0013703800505027175 0.011177600361406803 -0.014999999664723873
   vertex 0.0021834198851138353 0.011637600138783455 -0.014999999664723873
   vertex 0.0034841899760067463 0.0026131400372833014 -0.014999999664723873
  endloop
 endfacet
 facet normal 0 0 -1
  outer loop
   vertex 0.00046705201384611428 0.010939899832010269 -0.014999999664723873
   vertex 0.00074529799167066813 0.001499769976362586 -0.014999999664723873
   vertex -0.00074529799167066813 0.001499769976362586 -0.014999999664723873
  endloop
 endfacet
 facet normal -0 0 -1
  outer loop
   vertex 0.00046705201384611428 0.010939899832010269 -0.014999999664723873
   vertex 0.002186780096963048 0.0018792300252243876 -0.014999999664723873
   vertex 0.00074529799167066813 0.001499769976362586 -0.014999999664723873
  endloop
 endfacet
 facet normal -0 0 -1
  outer loop
   vertex 0.00046705201384611428 0.010939899832010269 -0.014999999664723873
   vertex 0.0034841899760067463 0.0026131400372833014 -0.014999999664723873
   vertex 0.002186780096963048 0.0018792300252243876 -0.014999999664723873
  endloop
 endfacet
 facet normal 0 -0 -1
  outer loop
   vertex 0.00046705201384611428 0.010939899832010269 -0.014999999664723873
   vertex 0.0013703800505027175 0.011177600361406803 -0.014999999664723873
   vertex 0.0034841899760067463 0.0026131400372833014 -0.014999999664723873
  endloop
 endfacet
 facet normal 0 0 -1
  outer loop
   vertex -0.00046705201384611428 0.010939899832010269 -0.014999999664723873
   vertex -0.002186780096963048 0.0018792300252243876 -0.014999999664723873
   vertex -0.0034841899760067463 0.0026131400372833014 -0.014999999664723873
  endloop
 endfacet
 facet normal 0 0 -1
  outer loop
   vertex -0.00046705201384611428 0.010939899832010269 -0.014999999664723873
   vertex -0.00074529799167066813 0.001499769976362586 -0.014999999664723873
   vertex -0.002186780096963048 0.0018792300252243876 -0.014999999664723873
  endloop
 endfacet
 facet normal -0 0 -1
  outer loop
   vertex -0.00046705201384611428 0.010939899832010269 -0.014999999664723873
   vertex 0.00046705201384611428 0.010939899832010269 -0.014999999664723873
   vertex -0.00074529799167066813 0.001499769976362586 -0.014999999664723873
  endloop
 endfacet
 facet normal -0 0 -1
  outer loop
   vertex -0.0013703800505027175 0.011177600361406803 -0.014999999664723873
   vertex -0.00046705201384611428 0.010939899832010269 -0.014999999664723873
   vertex -0.0034841899760067463 0.0026131400372833014 -0.014999999664723873
  endloop
 endfacet
 facet normal -0 0 -1
  outer loop
   vertex -0.0021834198851138353 0.011637600138783455 -0.014999999664723873
   vertex -0.0013703800505027175 0.011177600361406803 -0.014999999664723873
   vertex -0.0034841899760067463 0.0026131400372833014 -0.014999999664723873
  endloop
 endfacet
 facet normal -0 0 -1
  outer loop
   vertex -0.039999999105930328 0.029999999329447746 -0.014999999664723873
   vertex -0.0021834198851138353 0.011637600138783455 -0.014999999664723873
   vertex -0.0034841899760067463 0.0026131400372833014 -0.014999999664723873
  endloop
 endfacet
 facet normal 0 0 -1
  outer loop
   vertex -0.039999999105930328 0.039999999105930328 -0.014999999664723873
   vertex -0.0021834198851138353 0.011637600138783455 -0.014999999664723873
   vertex -0.039999999105930328 0.029999999329447746 -0.014999999664723873
  endloop
 endfacet
 facet normal 0 0 1
  outer loop
   vertex 0.0034841899760067463 0.0026131400372833014 0.014999999664723873
   vertex 0.039999999105930328 0.029999999329447746 0.014999999664723873
   vertex 0.0021834198851138353 0.011637600138783455 0.014999999664723873
  endloop
 endfacet
 facet normal 0 0 1
  outer loop
   vertex 0.039999999105930328 0.029999999329447746 0.014999999664723873
   vertex 0.039999999105930328 0.039999999105930328 0.014999999664723873
   vertex 0.0021834198851138353 0.011637600138783455 0.014999999664723873
  endloop
 endfacet
 facet normal 0 0 1
  outer loop
   vertex 0.0034841899760067463 0.0026131400372833014 0.014999999664723873
   vertex 0.0021834198851138353 0.011637600138783455 0.014999999664723873
   vertex 0.0013703800505027175 0.011177600361406803 0.014999999664723873
  endloop
 endfacet
 facet normal 0 0 1
  outer loop
   vertex -0.00074529799167066813 0.001499769976362586 0.014999999664723873
   vertex 0.00074529799167066813 0.001499769976362586 0.014999999664723873
   vertex 0.00046705201384611428 0.010939899832010269 0.014999999664723873
  endloop
 endfacet
 facet normal 0 0 1
  outer loop
   vertex 0.00074529799167066813 0.001499769976362586 0.014999999664723873
   vertex 0.002186780096963048 0.0018792300252243876 0.014999999664723873
   vertex 0.00046705201384611428 0.010939899832010269 0.014999999664723873
  endloop
 endfacet
 facet normal 0 0 1
  outer loop
   vertex 0.002186780096963048 0.0018792300252243876 0.014999999664723873
   vertex 0.0034841899760067463 0.0026131400372833014 0.014999999664723873
   vertex 0.00046705201384611428 0.010939899832010269 0.014999999664723873
  endloop
 endfacet
 facet normal 0 0 1
  outer loop
   vertex 0.0034841899760067463 0.0026131400372833014 0.014999999664723873
   vertex 0.0013703800505027175 0.011177600361406803 0.014999999664723873
   vertex 0.00046705201384611428 0.010939899832010269 0.014999999664723873
  endloop
 endfacet
 facet normal 0 -0 1
  outer loop
   vertex -0.0034841899760067463 0.0026131400372833014 0.014999999664723873
   vertex -0.002186780096963048 0.0018792300252243876 0.014999999664723873
   vertex -0.00046705201384611428 0.010939899832010269 0.014999999664723873
  endloop
 endfacet
 facet normal 0 -0 1
  outer loop
   vertex -0.002186780096963048 0.0018792300252243876 0.014999999664723873
   vertex -0.00074529799167066813 0.001499769976362586 0.014999999664723873
   vertex -0.00046705201384611428 0.010939899832010269 0.014999999664723873
  endloop
 endfacet
 facet normal 0 0 1
  outer loop
   vertex -0.00074529799167066813 0.001499769976362586 0.014999999664723873
   vertex 0.00046705201384611428 0.010939899832010269 0.014999999664723873
   vertex -0.00046705201384611428 0.010939899832010269 0.014999999664723873
  endloop
 endfacet
 facet normal 0 0 1
  outer loop
   vertex -0.0034841899760067463 0.0026131400372833014 0.014999999664723873
   vertex -0.00046705201384611428 0.010939899832010269 0.014999999664723873
   vertex -0.0013703800505027175 0.011177600361406803 0.014999999664723873
  endloop
 endfacet
 facet normal 0 0 1
  outer loop
   vertex -0.0034841899760067463 0.0026131400372833014 0.014999999664723873
   vertex -0.0013703800505027175 0.011177600361406803 0.014999999664723873
   vertex -0.0021834198851138353 0.011637600138783455 0.014999999664723873
  endloop
 endfacet
 facet normal 0 0 1
  outer loop
   vertex -0.0034841899760067463 0.0026131400372833014 0.014999999664723873
   vertex -0.0021834198851138353 0.011637600138783455 0.014999999664723873
   vertex -0.039999999105930328 0.029999999329447746 0.014999999664723873
  endloop
 endfacet
 facet normal 0 0 1
  outer loop
   vertex -0.039999999105930328 0.029999999329447746 0.014999999664723873
   vertex -0.0021834198851138353 0.011637600138783455 0.014999999664723873
   vertex -0.039999999105930328 0.039999999105930328 0.014999999664723873
  endloop
 endfacet
endsolid
